# xmcd CD database file
#
# Track frame offsets:
#	150
#	16330
#	32987
#	49152
#
# Disc length: 874 seconds
#
# Revision: 0
# Processed by: cddbd v1.5PL3 Copyright (c) Steve Scherf et al.
# Submitted via: CDex 1.51
#
DISCID=2c036804
DTITLE=SURFACE - なにしてんの
DYEAR=1999
DGENRE=JPop
TTITLE0=なにしてんの
TTITLE1=Room
TTITLE2=なにしてんの (original karaoke)
TTITLE3=Room (original karaoke)
EXTD=YEAR: 1999
EXTT0=
EXTT1=
EXTT2=
EXTT3=
PLAYORDER=
